  <svg
    id="letterR"
    xmlns="http://www.w3.org/2000/svg"
    viewBox="0 0 105.95 153.55"
  >
    <path
      d="M110,160.86v1.91c-26.1,0-33-11.7-42-35.7C57,97.9,40.88,91.76,19.38,91.76H9.78v36.47c0,10.17,0,16.69,1,34.54H4c1-17.85,1-24.37,1-34.54V43.77C5,33.6,5,27.08,4,9.23h23c31.48,0,58.15,8.63,58.15,41.26,0,29-21.11,39-47.79,40.88,14.21,3.08,26.49,11.52,34.74,34C82.53,153.75,91.36,160.86,110,160.86Zm-82.91-71c25.72,0,52.4-7.68,52.4-39.35S52.78,11.14,27.06,11.14H9.78v78.7Z"
      transform="translate(-4.03 -9.23)"
      fill="#ffffff"
      stroke="#ffffff"
      stroke-miterlimit="10"
      stroke-width="1"
      shape-rendering="auto"
    />
  </svg>