  <svg
    id="letterS"
    xmlns="http://www.w3.org/2000/svg"
    viewBox="0 0 92.71 161.23"
  >
    <path
      d="M19.53,113.25c1.15,30.71,20.92,51.06,46.06,51.06,19.2,0,35.13-10.56,35.13-34.36,0-19.19-18.24-31.67-44.72-53.74C32.58,56.82,22,49.91,22,32.64S34.5,5,54.46,5C75,5,89,17.67,98,38.78L90.36,40.7C88.82,24.39,78.65,6.92,54.46,6.92c-17.85,0-28.6,9.4-28.6,24.18,0,18.24,14,25.72,34,42.42,28.79,24,44.72,35.32,44.72,56.43,0,24.38-17.66,36.28-39,36.28-23.41,0-44.72-12.48-53.74-51.06Z"
      transform="translate(-11.85 -5)"
      fill="#ffffff"
      stroke="#ffffff"
      stroke-miterlimit="10"
      stroke-width="1"
      shape-rendering="auto"
    />
  </svg>